<?xml version="1.0" encoding="UTF-8"?>
<svg version="1.1" xmlns="http://www.w3.org/2000/svg" width="1563" height="1563">
<path d="M0 0 C12.59247633 11.96087877 17.26580753 28.29912564 17.83621216 45.32302856 C17.86473879 48.1130603 17.86266098 50.90127261 17.84765625 53.69140625 C17.8462413 54.69968979 17.84482635 55.70797333 17.84336853 56.74681091 C17.83781605 59.93540542 17.82527261 63.12392708 17.8125 66.3125 C17.80747885 68.48762919 17.80291702 70.66275949 17.79882812 72.83789062 C17.78786223 78.14195151 17.77117214 83.44597055 17.75 88.75 C19.235 88.255 19.235 88.255 20.75 87.75 C20.75 89.07 20.75 90.39 20.75 91.75 C21.94496094 91.33427734 21.94496094 91.33427734 23.1640625 90.91015625 C24.22367188 90.54792969 25.28328125 90.18570313 26.375 89.8125 C27.41914062 89.45285156 28.46328125 89.09320312 29.5390625 88.72265625 C46.34964141 83.6304006 66.34656927 85.65105058 81.73828125 93.83984375 C96.95039142 103.48799145 109.23956237 120.27306265 113.24609375 137.87890625 C113.93819046 143.19571122 114.07708272 148.45477514 114.125 153.8125 C114.13893799 154.81748535 114.15287598 155.8224707 114.16723633 156.85791016 C114.06972544 172.36593983 108.45379558 185.55678315 97.703125 196.69140625 C95.26929631 199.25666169 93.86236728 201.02763894 93.3125 204.5625 C94.29129218 211.69370014 101.49295584 216.38821485 106.75 220.75 C107.74 221.4925 108.73 222.235 109.75 223 C119.15885941 230.89626348 124.68344249 242.82102813 126.75 254.75 C127.65247802 267.74443872 127.75532827 280.56597724 122.75 292.75 C122.399375 293.62140625 122.04875 294.4928125 121.6875 295.390625 C114.48179058 311.3032333 101.40653097 325.45858059 85.0078125 331.8125 C69.93894454 336.57591115 52.81773806 336.17305041 37.94702148 330.72265625 C34.58669044 329.70031498 31.76193511 329.43605529 28.2578125 329.3359375 C27.05898437 329.29726563 25.86015625 329.25859375 24.625 329.21875 C23.3875 329.1878125 22.15 329.156875 20.875 329.125 C19.61429688 329.08632813 18.35359375 329.04765625 17.0546875 329.0078125 C13.95326863 328.91383011 10.85185114 328.82816589 7.75 328.75 C7.75 331.72 7.75 334.69 7.75 337.75 C8.52190674 337.73428955 9.29381348 337.7185791 10.08911133 337.70239258 C13.58016662 337.64010393 17.07110509 337.60102827 20.5625 337.5625 C22.38491211 337.52479492 22.38491211 337.52479492 24.24414062 337.48632812 C25.40751953 337.47666016 26.57089844 337.46699219 27.76953125 337.45703125 C28.84307861 337.4413208 29.91662598 337.42561035 31.02270508 337.40942383 C33.75 337.75 33.75 337.75 35.5612793 339.08081055 C38.18715641 342.76804034 38.0513845 346.37992469 37.75 350.75 C35.55 355.35 35.55 355.35 32.75 356.75 C30.8636088 356.834915 28.97421485 356.857193 27.0859375 356.84765625 C25.96445313 356.84443359 24.84296875 356.84121094 23.6875 356.83789062 C21.9240625 356.82532227 21.9240625 356.82532227 20.125 356.8125 C18.94164062 356.80798828 17.75828125 356.80347656 16.5390625 356.79882812 C13.60932493 356.78701467 10.67968728 356.77054258 7.75 356.75 C7.75 359.72 7.75 362.69 7.75 365.75 C8.78406982 365.73428955 9.81813965 365.7185791 10.88354492 365.70239258 C14.73193527 365.64795946 18.58029179 365.61360151 22.42895508 365.58520508 C24.09242481 365.57014886 25.75585505 365.54969937 27.41918945 365.52368164 C29.81471522 365.48715793 32.20971467 365.47024218 34.60546875 365.45703125 C35.3452446 365.44154739 36.08502045 365.42606354 36.84721375 365.41011047 C41.33319123 365.40865907 44.19084538 365.96521857 47.75 368.75 C48.96977329 371.18954658 48.95153813 372.90305849 49 375.625 C49.03867188 376.92050781 49.03867188 376.92050781 49.078125 378.2421875 C48.67453383 381.32677714 47.89810767 382.51635949 45.75 384.75 C43.39733887 385.24447632 43.39733887 385.24447632 40.59179688 385.23583984 C39.54060669 385.2419931 38.4894165 385.24814636 37.40637207 385.25448608 C36.27195679 385.24011505 35.1375415 385.22574402 33.96875 385.2109375 C32.80371948 385.21002106 31.63868896 385.20910461 30.43835449 385.2081604 C27.97367279 385.20211486 25.50899875 385.18634058 23.04443359 385.16162109 C19.26502506 385.12514501 15.48659728 385.12060143 11.70703125 385.12109375 C9.31509567 385.11126185 6.92316674 385.09960453 4.53125 385.0859375 C3.39683472 385.08371185 2.26241943 385.08148621 1.09362793 385.07919312 C0.04243774 385.06643341 -1.00875244 385.05367371 -2.09179688 385.04052734 C-3.01762573 385.03290375 -3.94345459 385.02528015 -4.89733887 385.01742554 C-7.25 384.75 -7.25 384.75 -10.25 382.75 C-11.38799845 379.73272565 -11.37144497 376.81376976 -11.36352539 373.61425781 C-11.36344986 372.59350159 -11.36337433 371.57274536 -11.36329651 370.52105713 C-11.35813522 369.42613953 -11.35297394 368.33122192 -11.34765625 367.203125 C-11.3462413 366.0767865 -11.34482635 364.950448 -11.34336853 363.78997803 C-11.33777199 360.19329165 -11.3252201 356.59666756 -11.3125 353 C-11.30748455 350.56119882 -11.30292172 348.12239666 -11.29882812 345.68359375 C-11.2878037 339.70570792 -11.27106898 333.72785841 -11.25 327.75 C-13.56 328.74 -15.87 329.73 -18.25 330.75 C-18.105625 331.5234375 -17.96125 332.296875 -17.8125 333.09375 C-15.64247892 345.26997938 -15.02322273 356.63097198 -22 367.5625 C-28.2311882 376.00820361 -35.61253631 382.68309475 -46.25 384.75 C-48.76079858 384.85615541 -51.24307153 384.91392972 -53.75390625 384.91796875 C-54.83344826 384.92296135 -54.83344826 384.92296135 -55.93479919 384.92805481 C-57.45188764 384.93310474 -58.96898714 384.93546373 -60.48608398 384.93530273 C-62.80796463 384.93749572 -65.1293748 384.95568903 -67.45117188 384.97460938 C-68.92708171 384.9775424 -70.4029938 384.9795278 -71.87890625 384.98046875 C-72.57270889 384.98765427 -73.26651154 384.99483978 -73.9813385 385.00224304 C-77.63774964 384.98487069 -79.11838859 384.83774094 -82.25 382.75 C-83.38641867 379.74813985 -83.3448165 376.90743018 -83.28076172 373.7253418 C-83.26520233 372.72717941 -83.24964294 371.72901703 -83.23361206 370.7006073 C-83.21581696 369.62764908 -83.19802185 368.55469086 -83.1796875 367.44921875 C-83.16878683 365.16993455 -83.16107401 362.89063328 -83.15625 360.61132812 C-83.14839083 357.02189585 -83.12497985 353.43656258 -83.04785156 349.84790039 C-82.11839544 337.47755382 -82.11839544 337.47755382 -85.38342285 325.95758057 C-88.21748618 323.15995342 -91.45003434 321.75859415 -95.25 320.75 C-95.25 324.15719902 -94.493785 325.4275013 -92.875 328.375 C-87.40026159 339.06082087 -87.06316843 349.26429885 -90.21875 360.76171875 C-93.53446454 370.36975521 -99.7364542 378.40599211 -108.875 383.09765625 C-119.61654608 387.55731601 -130.61296058 388.3187767 -141.5 383.8203125 C-151.3741981 378.84892804 -158.27758235 371.01799026 -162.25 360.75 C-163.08553719 357.90054672 -163.36883938 355.38751333 -163.34765625 352.421875 C-163.34443359 351.62265625 -163.34121094 350.8234375 -163.33789062 350 C-163.32951172 349.175 -163.32113281 348.35 -163.3125 347.5 C-163.30798828 346.65953125 -163.30347656 345.8190625 -163.29882812 344.953125 C-163.28707961 342.88538599 -163.26914522 340.81768376 -163.25 338.75 C-164.03536133 338.67483154 -164.82072266 338.59966309 -165.62988281 338.5222168 C-169.25422805 338.16995344 -172.87704799 337.8038045 -176.5 337.4375 C-177.73492188 337.31955078 -178.96984375 337.20160156 -180.2421875 337.08007812 C-187.27386751 336.3584057 -193.87416559 335.26903346 -200.65527344 333.24926758 C-203.58560269 332.68542459 -205.4218886 332.81818585 -208.25 333.75 C-212.76122507 339.38903134 -213.72510093 343.62348599 -213.25 350.75 C-211.85910368 356.95009718 -209.47709244 360.19557714 -204.25 363.75 C-198.95582006 366.2393164 -194.01564065 366.4644742 -188.25 365.75 C-186.22566208 364.91150816 -186.22566208 364.91150816 -184.5 363.75 C-180.6329256 361.37026191 -178.7079677 360.92445043 -174.25 361.75 C-170.62026914 364.81843227 -168.49293862 368.34635466 -167.6875 373 C-168.30590552 377.12270346 -168.59713334 377.54732805 -171.6875 380 C-181.30273055 386.34808355 -191.94574858 387.74881142 -203.12890625 385.59765625 C-214.4147975 382.53252684 -223.10222033 376.33300878 -229.125 366.3125 C-233.93568503 356.82071067 -234.88288385 345.75550485 -232 335.5 C-230.48546783 331.02162257 -228.48455038 326.91088691 -226.25 322.75 C-227.13171875 322.48445313 -228.0134375 322.21890625 -228.921875 321.9453125 C-238.10073018 318.64868141 -245.84607 311.93332549 -253.25 305.75 C-255.56 307.4 -257.87 309.05 -260.25 310.75 C-260.0334375 311.39066406 -259.816875 312.03132813 -259.59375 312.69140625 C-257.43236628 319.40570476 -255.82719955 325.03307399 -258.8125 331.75 C-261.8907693 337.39166794 -266.81098421 342.3254345 -272.25 345.75 C-272.91 345.75 -273.57 345.75 -274.25 345.75 C-271.7979242 350.50991185 -268.34224167 354.32829431 -264.25 357.75 C-263.59 357.75 -262.93 357.75 -262.25 357.75 C-261.98445313 357.12351562 -261.71890625 356.49703125 -261.4453125 355.8515625 C-261.09210938 355.03429687 -260.73890625 354.21703125 -260.375 353.375 C-260.02695312 352.56289063 -259.67890625 351.75078125 -259.3203125 350.9140625 C-258.25 348.75 -258.25 348.75 -256.25 346.75 C-253.53515625 346.44921875 -253.53515625 346.44921875 -250.3125 346.4375 C-249.25160156 346.42074219 -248.19070313 346.40398437 -247.09765625 346.38671875 C-244.25 346.75 -244.25 346.75 -242.3671875 348.0078125 C-240.54251471 350.85328125 -241.19046074 353.09154604 -241.65625 356.3203125 C-242.59818018 360.17478993 -244.30566937 363.30038113 -246.25 366.75 C-245.13625 367.018125 -244.0225 367.28625 -242.875 367.5625 C-239.25 368.75 -239.25 368.75 -237.25 371.75 C-236.94921875 374.125 -236.94921875 374.125 -236.9375 376.75 C-236.92074219 377.61625 -236.90398437 378.4825 -236.88671875 379.375 C-237.25 381.75 -237.25 381.75 -238.5546875 383.5078125 C-241.5273609 385.68594647 -244.68577926 385.86332975 -248.25 385.75 C-253.02215985 384.84567265 -257.72946476 383.63147263 -262.31640625 382.02734375 C-265.00881615 381.6411597 -266.4868001 382.54486598 -268.9375 383.6875 C-277.91517162 387.14137635 -288.8100008 387.37247329 -297.9375 384.1875 C-302.43964518 382.03630435 -305.60121539 378.96264268 -308.25 374.75 C-310.40450525 368.28648425 -310.53980291 360.05223155 -308.05078125 353.6796875 C-306.0123879 350.23957781 -304.05971015 347.43741018 -301 344.83984375 C-298.94307246 342.84679453 -298.94307246 342.84679453 -299.296875 339.953125 C-299.52890625 338.97859375 -299.7609375 338.0040625 -300 337 C-300.22171875 336.01515625 -300.4434375 335.0303125 -300.671875 334.015625 C-300.95804688 332.89414062 -300.95804688 332.89414062 -301.25 331.75 C-302.219375 332.01554687 -303.18875 332.28109375 -304.1875 332.5546875 C-338.74424642 341.77563018 -377.30662854 339.96020746 -409.25 322.75 C-412.43468171 320.75987138 -415.55909299 318.67857883 -418.55932617 316.41894531 C-420.33750841 315.09027955 -420.33750841 315.09027955 -423.25 313.75 C-427.94257423 314.57412182 -431.83587473 317.09953453 -435.9375 319.4375 C-447.81453544 325.94524038 -460.46571953 330.22504301 -473.5625 333.5625 C-474.32522217 333.75739014 -475.08794434 333.95228027 -475.8737793 334.15307617 C-489.02663342 337.31818658 -501.976774 338.12640018 -515.4375 338.0625 C-516.25492676 338.06034485 -517.07235352 338.0581897 -517.91455078 338.05596924 C-529.9215638 338.00516672 -541.54415862 337.65671365 -553.25 334.75 C-554.06178711 334.55664062 -554.87357422 334.36328125 -555.70996094 334.1640625 C-595.04633351 324.57054747 -636.17610311 301.72218344 -658.25 266.75 C-658.88550781 265.79738281 -659.52101563 264.84476563 -660.17578125 263.86328125 C-673.51811704 243.21504508 -681.69482993 220.03531669 -685.25 195.75 C-685.45367188 194.45835937 -685.65734375 193.16671875 -685.8671875 191.8359375 C-691.99111436 149.88602461 -683.4168298 102.23817413 -657.97924805 67.64697266 C-656.74685826 66.00617324 -655.5009709 64.37666184 -654.25 62.75 C-653.4765625 61.7290625 -652.703125 60.708125 -651.90625 59.65625 C-647.97243167 54.58219447 -647.97243167 54.58219447 -646.25 52.75 C-645.59 52.75 -644.93 52.75 -644.25 52.75 C-644.00378906 52.1725 -643.75757813 51.595 -643.50390625 51 C-635.91101417 37.37537121 -614.61256491 26.6959236 -601.25 19.75 C-600.63286133 19.42580078 -600.01572266 19.10160156 -599.37988281 18.76757812 C-580.8974556 9.19515495 -560.8182089 2.85384981 -540.25 -0.25 C-539.58186279 -0.3516748 -538.91372559 -0.45334961 -538.2253418 -0.55810547 C-519.19951428 -3.05804439 -497.96196923 -2.4581919 -479.25 1.75 C-478.38294434 1.94335938 -477.51588867 2.13671875 -476.62255859 2.3359375 C-449.86180983 8.52582335 -416.02641295 20.95643462 -400.60546875 45.3515625 C-394.70849745 55.99767614 -393.3193665 67.77309523 -392.25 79.75 C-391.50878906 79.49605469 -390.76757812 79.24210938 -390.00390625 78.98046875 C-356.13342058 67.91141162 -316.30435853 68.72794167 -284.09667969 84.75585938 C-282.19113049 85.78169178 -280.36756378 86.88969352 -278.5390625 88.046875 C-271.00541508 93.02604807 -271.00541508 93.02604807 -262.25 93.3125 C-260.57677233 92.81314612 -258.90988555 92.29205637 -257.25 91.75 C-253.16364956 90.88007666 -249.30724351 90.71575913 -245.13598633 90.71386719 C-235.67876394 90.60357888 -229.29228188 88.35115074 -221.10546875 83.8125 C-213.813365 79.78270139 -205.78512438 77.21387486 -197.5546875 76.015625 C-188.7315237 74.95876793 -188.7315237 74.95876793 -181.87109375 69.92578125 C-180.74779254 67.68178511 -179.70120759 65.39775123 -178.734375 63.08203125 C-175.28389154 55.3366039 -168.371277 49.91882236 -160.73828125 46.5 C-156.66024021 45.27082594 -153.26426055 45.32762422 -149.25 46.75 C-145.55274443 49.31544264 -144.46075113 50.71540356 -143.5625 55.125 C-144.49827764 60.0591003 -146.33839183 62.63698102 -150.25 65.75 C-153.81844066 67.69330719 -157.461517 69.28718717 -161.25 70.75 C-161.25 71.08 -161.25 71.41 -161.25 71.75 C-160.69352783 71.78440186 -160.13705566 71.81880371 -159.5637207 71.85424805 C-143.85010845 72.89046928 -127.92165959 74.67387437 -113.25 80.75 C-113.2406543 79.74437012 -113.23130859 78.73874023 -113.22167969 77.70263672 C-112.85509508 43.96798587 -112.85509508 43.96798587 -110.4375 31.0625 C-110.28442383 30.24185059 -110.13134766 29.42120117 -109.97363281 28.57568359 C-107.99045924 19.1762263 -104.53770893 11.0425244 -98.25 3.75 C-97.74855469 3.14285156 -97.24710938 2.53570313 -96.73046875 1.91015625 C-85.18903313 -10.92302156 -66.97680757 -13.06061603 -50.71875 -14.13183594 C-32.96312393 -14.98168988 -13.80293089 -11.75805224 0 0 Z M-547.625 145.3125 C-554.25751105 153.08921618 -555.47751153 163.13647525 -555.13671875 173.04296875 C-553.77247077 183.69512722 -548.71656417 191.27982303 -540.5390625 198.0625 C-531.61949652 204.63801622 -521.20324335 207.02282887 -510.23730469 205.46386719 C-503.70930249 204.14592064 -497.99646189 201.59385049 -492 198.75 C-490.07852399 197.85331119 -488.15666195 196.95744902 -486.234375 196.0625 C-485.39616211 195.66675781 -484.55794922 195.27101563 -483.69433594 194.86328125 C-481.24025041 193.74555952 -478.76124435 192.73163768 -476.25 191.75 C-476.18530518 191.19763672 -476.12061035 190.64527344 -476.05395508 190.07617188 C-474.57188154 177.79213574 -472.36491168 166.41557486 -468.25 154.75 C-467.64317871 152.91754362 -467.03851246 151.08436978 -466.4375 149.25 C-466.045625 148.095 -465.65375 146.94 -465.25 145.75 C-466.17039062 145.60304688 -467.09078125 145.45609375 -468.0390625 145.3046875 C-477.45965406 143.63545844 -485.55434435 140.85114256 -494.25 136.75 C-496.29050106 135.80996573 -498.33207702 134.87225919 -500.375 133.9375 C-501.22320313 133.53917969 -502.07140625 133.14085937 -502.9453125 132.73046875 C-519.22692634 125.80388388 -536.47288317 132.9577039 -547.625 145.3125 Z M-281.375 322.75 C-282.09945313 323.12125 -282.82390625 323.4925 -283.5703125 323.875 C-284.40175781 324.308125 -284.40175781 324.308125 -285.25 324.75 C-284.59 327.06 -283.93 329.37 -283.25 331.75 C-278.15589736 329.35310857 -278.15589736 329.35310857 -274.75 325.125 C-273.99232198 322.74712092 -273.99232198 322.74712092 -275.25 320.75 C-277.77475462 320.75 -279.13902934 321.59595063 -281.375 322.75 Z M-131.4375 332.875 C-132.33919922 333.06320312 -133.24089844 333.25140625 -134.16992188 333.4453125 C-139.55406333 334.69660681 -139.55406333 334.69660681 -143.33203125 338.5625 C-145.0054175 344.37306673 -145.50106028 350.36379684 -143.37109375 356.12890625 C-140.34508035 361.39197246 -136.14904653 365.48946488 -130.3046875 367.37890625 C-125.14272888 368.34044756 -120.71871274 367.50615217 -116.25 364.75 C-111.41520289 360.52311451 -108.15998516 356.23364424 -107.25 349.75 C-107.17105523 342.36866387 -109.39821355 337.76842636 -113.625 331.8125 C-118.44960865 328.65794819 -126.23769795 331.63999995 -131.4375 332.875 Z M-64.25 332.75 C-64.25 343.64 -64.25 354.53 -64.25 365.75 C-50.98209986 366.60172235 -50.98209986 366.60172235 -41.25 360.75 C-40.074375 359.6671875 -40.074375 359.6671875 -38.875 358.5625 C-36.09763221 353.75551729 -34.72490518 348.74856781 -35.6953125 343.20703125 C-36.90283822 339.31117196 -38.00167494 336.34381849 -41.25 333.75 C-43.75873159 333.2459183 -43.75873159 333.2459183 -46.57421875 333.23828125 C-47.50065186 333.20516846 -48.42708496 333.17205566 -49.3815918 333.13793945 C-51.14176636 333.10059692 -51.14176636 333.10059692 -52.9375 333.0625 C-56.670625 332.959375 -60.40375 332.85625 -64.25 332.75 Z M-289.25 358.75 C-290.62771762 359.91475062 -290.62771762 359.91475062 -290.5625 363.125 C-290.59504389 366.69127132 -290.59504389 366.69127132 -288.6875 368.6875 C-285.44917389 370.09907805 -282.74186021 369.95145347 -279.25 369.75 C-282.45760251 365.94364503 -285.65746109 362.20436433 -289.25 358.75 Z " fill="#E57D22" transform="translate(1082.25,582.25)"/>
<path d="M0 0 C12.59247633 11.96087877 17.26580753 28.29912564 17.83621216 45.32302856 C17.86473879 48.1130603 17.86266098 50.90127261 17.84765625 53.69140625 C17.8462413 54.69968979 17.84482635 55.70797333 17.84336853 56.74681091 C17.83781605 59.93540542 17.82527261 63.12392708 17.8125 66.3125 C17.80747885 68.48762919 17.80291702 70.66275949 17.79882812 72.83789062 C17.78786223 78.14195151 17.77117214 83.44597055 17.75 88.75 C19.235 88.255 19.235 88.255 20.75 87.75 C20.75 89.07 20.75 90.39 20.75 91.75 C21.94496094 91.33427734 21.94496094 91.33427734 23.1640625 90.91015625 C24.22367188 90.54792969 25.28328125 90.18570313 26.375 89.8125 C27.41914062 89.45285156 28.46328125 89.09320312 29.5390625 88.72265625 C46.34964141 83.6304006 66.34656927 85.65105058 81.73828125 93.83984375 C96.95039142 103.48799145 109.23956237 120.27306265 113.24609375 137.87890625 C113.93819046 143.19571122 114.07708272 148.45477514 114.125 153.8125 C114.13893799 154.81748535 114.15287598 155.8224707 114.16723633 156.85791016 C114.06972544 172.36593983 108.45379558 185.55678315 97.703125 196.69140625 C95.26929631 199.25666169 93.86236728 201.02763894 93.3125 204.5625 C94.29129218 211.69370014 101.49295584 216.38821485 106.75 220.75 C107.74 221.4925 108.73 222.235 109.75 223 C119.15885941 230.89626348 124.68344249 242.82102813 126.75 254.75 C127.65247802 267.74443872 127.75532827 280.56597724 122.75 292.75 C122.399375 293.62140625 122.04875 294.4928125 121.6875 295.390625 C114.48179058 311.3032333 101.40653097 325.45858059 85.0078125 331.8125 C69.93894454 336.57591115 52.81773806 336.17305041 37.94702148 330.72265625 C34.58669044 329.70031498 31.76193511 329.43605529 28.2578125 329.3359375 C27.05898437 329.29726563 25.86015625 329.25859375 24.625 329.21875 C23.3875 329.1878125 22.15 329.156875 20.875 329.125 C19.61429688 329.08632813 18.35359375 329.04765625 17.0546875 329.0078125 C13.95326863 328.91383011 10.85185114 328.82816589 7.75 328.75 C7.75 331.72 7.75 334.69 7.75 337.75 C8.52190674 337.73428955 9.29381348 337.7185791 10.08911133 337.70239258 C13.58016662 337.64010393 17.07110509 337.60102827 20.5625 337.5625 C22.38491211 337.52479492 22.38491211 337.52479492 24.24414062 337.48632812 C25.40751953 337.47666016 26.57089844 337.46699219 27.76953125 337.45703125 C28.84307861 337.4413208 29.91662598 337.42561035 31.02270508 337.40942383 C33.75 337.75 33.75 337.75 35.5612793 339.08081055 C38.18715641 342.76804034 38.0513845 346.37992469 37.75 350.75 C35.55 355.35 35.55 355.35 32.75 356.75 C30.8636088 356.834915 28.97421485 356.857193 27.0859375 356.84765625 C25.96445313 356.84443359 24.84296875 356.84121094 23.6875 356.83789062 C21.9240625 356.82532227 21.9240625 356.82532227 20.125 356.8125 C18.94164062 356.80798828 17.75828125 356.80347656 16.5390625 356.79882812 C13.60932493 356.78701467 10.67968728 356.77054258 7.75 356.75 C7.75 359.72 7.75 362.69 7.75 365.75 C8.78406982 365.73428955 9.81813965 365.7185791 10.88354492 365.70239258 C14.73193527 365.64795946 18.58029179 365.61360151 22.42895508 365.58520508 C24.09242481 365.57014886 25.75585505 365.54969937 27.41918945 365.52368164 C29.81471522 365.48715793 32.20971467 365.47024218 34.60546875 365.45703125 C35.3452446 365.44154739 36.08502045 365.42606354 36.84721375 365.41011047 C41.33319123 365.40865907 44.19084538 365.96521857 47.75 368.75 C48.96977329 371.18954658 48.95153813 372.90305849 49 375.625 C49.03867188 376.92050781 49.03867188 376.92050781 49.078125 378.2421875 C48.67453383 381.32677714 47.89810767 382.51635949 45.75 384.75 C43.39733887 385.24447632 43.39733887 385.24447632 40.59179688 385.23583984 C39.54060669 385.2419931 38.4894165 385.24814636 37.40637207 385.25448608 C36.27195679 385.24011505 35.1375415 385.22574402 33.96875 385.2109375 C32.80371948 385.21002106 31.63868896 385.20910461 30.43835449 385.2081604 C27.97367279 385.20211486 25.50899875 385.18634058 23.04443359 385.16162109 C19.26502506 385.12514501 15.48659728 385.12060143 11.70703125 385.12109375 C9.31509567 385.11126185 6.92316674 385.09960453 4.53125 385.0859375 C3.39683472 385.08371185 2.26241943 385.08148621 1.09362793 385.07919312 C0.04243774 385.06643341 -1.00875244 385.05367371 -2.09179688 385.04052734 C-3.01762573 385.03290375 -3.94345459 385.02528015 -4.89733887 385.01742554 C-7.25 384.75 -7.25 384.75 -10.25 382.75 C-11.38799845 379.73272565 -11.37144497 376.81376976 -11.36352539 373.61425781 C-11.36344986 372.59350159 -11.36337433 371.57274536 -11.36329651 370.52105713 C-11.35813522 369.42613953 -11.35297394 368.33122192 -11.34765625 367.203125 C-11.3462413 366.0767865 -11.34482635 364.950448 -11.34336853 363.78997803 C-11.33777199 360.19329165 -11.3252201 356.59666756 -11.3125 353 C-11.30748455 350.56119882 -11.30292172 348.12239666 -11.29882812 345.68359375 C-11.2878037 339.70570792 -11.27106898 333.72785841 -11.25 327.75 C-13.56 328.74 -15.87 329.73 -18.25 330.75 C-18.105625 331.5234375 -17.96125 332.296875 -17.8125 333.09375 C-15.64247892 345.26997938 -15.02322273 356.63097198 -22 367.5625 C-28.2311882 376.00820361 -35.61253631 382.68309475 -46.25 384.75 C-48.76079858 384.85615541 -51.24307153 384.91392972 -53.75390625 384.91796875 C-54.83344826 384.92296135 -54.83344826 384.92296135 -55.93479919 384.92805481 C-57.45188764 384.93310474 -58.96898714 384.93546373 -60.48608398 384.93530273 C-62.80796463 384.93749572 -65.1293748 384.95568903 -67.45117188 384.97460938 C-68.92708171 384.9775424 -70.4029938 384.9795278 -71.87890625 384.98046875 C-72.57270889 384.98765427 -73.26651154 384.99483978 -73.9813385 385.00224304 C-77.63774964 384.98487069 -79.11838859 384.83774094 -82.25 382.75 C-83.38641867 379.74813985 -83.3448165 376.90743018 -83.28076172 373.7253418 C-83.26520233 372.72717941 -83.24964294 371.72901703 -83.23361206 370.7006073 C-83.21581696 369.62764908 -83.19802185 368.55469086 -83.1796875 367.44921875 C-83.16878683 365.16993455 -83.16107401 362.89063328 -83.15625 360.61132812 C-83.14839083 357.02189585 -83.12497985 353.43656258 -83.04785156 349.84790039 C-82.11839544 337.47755382 -82.11839544 337.47755382 -85.38342285 325.95758057 C-88.21748618 323.15995342 -91.45003434 321.75859415 -95.25 320.75 C-95.25 324.15719902 -94.493785 325.4275013 -92.875 328.375 C-87.40026159 339.06082087 -87.06316843 349.26429885 -90.21875 360.76171875 C-93.53446454 370.36975521 -99.7364542 378.40599211 -108.875 383.09765625 C-119.61654608 387.55731601 -130.61296058 388.3187767 -141.5 383.8203125 C-151.3741981 378.84892804 -158.27758235 371.01799026 -162.25 360.75 C-163.08553719 357.90054672 -163.36883938 355.38751333 -163.34765625 352.421875 C-163.34443359 351.62265625 -163.34121094 350.8234375 -163.33789062 350 C-163.32951172 349.175 -163.32113281 348.35 -163.3125 347.5 C-163.30798828 346.65953125 -163.30347656 345.8190625 -163.29882812 344.953125 C-163.28707961 342.88538599 -163.26914522 340.81768376 -163.25 338.75 C-164.03536133 338.67483154 -164.82072266 338.59966309 -165.62988281 338.5222168 C-169.25422805 338.16995344 -172.87704799 337.8038045 -176.5 337.4375 C-177.73492188 337.31955078 -178.96984375 337.20160156 -180.2421875 337.08007812 C-187.27386751 336.3584057 -193.87416559 335.26903346 -200.65527344 333.24926758 C-203.58560269 332.68542459 -205.4218886 332.81818585 -208.25 333.75 C-212.76122507 339.38903134 -213.72510093 343.62348599 -213.25 350.75 C-211.85910368 356.95009718 -209.47709244 360.19557714 -204.25 363.75 C-198.95582006 366.2393164 -194.01564065 366.4644742 -188.25 365.75 C-186.22566208 364.91150816 -186.22566208 364.91150816 -184.5 363.75 C-180.6329256 361.37026191 -178.7079677 360.92445043 -174.25 361.75 C-170.62026914 364.81843227 -168.49293862 368.34635466 -167.6875 373 C-168.30590552 377.12270346 -168.59713334 377.54732805 -171.6875 380 C-181.30273055 386.34808355 -191.94574858 387.74881142 -203.12890625 385.59765625 C-214.4147975 382.53252684 -223.10222033 376.33300878 -229.125 366.3125 C-233.93568503 356.82071067 -234.88288385 345.75550485 -232 335.5 C-230.48546783 331.02162257 -228.48455038 326.91088691 -226.25 322.75 C-227.13171875 322.48445313 -228.0134375 322.21890625 -228.921875 321.9453125 C-238.10073018 318.64868141 -245.84607 311.93332549 -253.25 305.75 C-255.56 307.4 -257.87 309.05 -260.25 310.75 C-260.0334375 311.39066406 -259.816875 312.03132813 -259.59375 312.69140625 C-257.43236628 319.40570476 -255.82719955 325.03307399 -258.8125 331.75 C-261.8907693 337.39166794 -266.81098421 342.3254345 -272.25 345.75 C-272.91 345.75 -273.57 345.75 -274.25 345.75 C-271.7979242 350.50991185 -268.34224167 354.32829431 -264.25 357.75 C-263.59 357.75 -262.93 357.75 -262.25 357.75 C-261.98445313 357.12351562 -261.71890625 356.49703125 -261.4453125 355.8515625 C-261.09210938 355.03429687 -260.73890625 354.21703125 -260.375 353.375 C-260.02695312 352.56289063 -259.67890625 351.75078125 -259.3203125 350.9140625 C-258.25 348.75 -258.25 348.75 -256.25 346.75 C-253.53515625 346.44921875 -253.53515625 346.44921875 -250.3125 346.4375 C-249.25160156 346.42074219 -248.19070313 346.40398437 -247.09765625 346.38671875 C-244.25 346.75 -244.25 346.75 -242.3671875 348.0078125 C-240.54251471 350.85328125 -241.19046074 353.09154604 -241.65625 356.3203125 C-242.59818018 360.17478993 -244.30566937 363.30038113 -246.25 366.75 C-245.13625 367.018125 -244.0225 367.28625 -242.875 367.5625 C-239.25 368.75 -239.25 368.75 -237.25 371.75 C-236.94921875 374.125 -236.94921875 374.125 -236.9375 376.75 C-236.92074219 377.61625 -236.90398437 378.4825 -236.88671875 379.375 C-237.25 381.75 -237.25 381.75 -238.5546875 383.5078125 C-241.5273609 385.68594647 -244.68577926 385.86332975 -248.25 385.75 C-253.02215985 384.84567265 -257.72946476 383.63147263 -262.31640625 382.02734375 C-265.00881615 381.6411597 -266.4868001 382.54486598 -268.9375 383.6875 C-277.91517162 387.14137635 -288.8100008 387.37247329 -297.9375 384.1875 C-302.43964518 382.03630435 -305.60121539 378.96264268 -308.25 374.75 C-310.40450525 368.28648425 -310.53980291 360.05223155 -308.05078125 353.6796875 C-306.0123879 350.23957781 -304.05971015 347.43741018 -301 344.83984375 C-298.94307246 342.84679453 -298.94307246 342.84679453 -299.296875 339.953125 C-299.52890625 338.97859375 -299.7609375 338.0040625 -300 337 C-300.22171875 336.01515625 -300.4434375 335.0303125 -300.671875 334.015625 C-300.95804688 332.89414062 -300.95804688 332.89414062 -301.25 331.75 C-302.219375 332.01554687 -303.18875 332.28109375 -304.1875 332.5546875 C-338.74424642 341.77563018 -377.30662854 339.96020746 -409.25 322.75 C-412.43468171 320.75987138 -415.55909299 318.67857883 -418.55932617 316.41894531 C-420.33750841 315.09027955 -420.33750841 315.09027955 -423.25 313.75 C-427.94257423 314.57412182 -431.83587473 317.09953453 -435.9375 319.4375 C-447.81453544 325.94524038 -460.46571953 330.22504301 -473.5625 333.5625 C-474.32522217 333.75739014 -475.08794434 333.95228027 -475.8737793 334.15307617 C-489.02663342 337.31818658 -501.976774 338.12640018 -515.4375 338.0625 C-516.25492676 338.06034485 -517.07235352 338.0581897 -517.91455078 338.05596924 C-529.9215638 338.00516672 -541.54415862 337.65671365 -553.25 334.75 C-554.06178711 334.55664062 -554.87357422 334.36328125 -555.70996094 334.1640625 C-595.04633351 324.57054747 -636.17610311 301.72218344 -658.25 266.75 C-658.88550781 265.79738281 -659.52101563 264.84476563 -660.17578125 263.86328125 C-673.51811704 243.21504508 -681.69482993 220.03531669 -685.25 195.75 C-685.45367188 194.45835937 -685.65734375 193.16671875 -685.8671875 191.8359375 C-691.99111436 149.88602461 -683.4168298 102.23817413 -657.97924805 67.64697266 C-656.74685826 66.00617324 -655.5009709 64.37666184 -654.25 62.75 C-653.4765625 61.7290625 -652.703125 60.708125 -651.90625 59.65625 C-647.97243167 54.58219447 -647.97243167 54.58219447 -646.25 52.75 C-645.59 52.75 -644.93 52.75 -644.25 52.75 C-644.00378906 52.1725 -643.75757813 51.595 -643.50390625 51 C-635.91101417 37.37537121 -614.61256491 26.6959236 -601.25 19.75 C-600.63286133 19.42580078 -600.01572266 19.10160156 -599.37988281 18.76757812 C-580.8974556 9.19515495 -560.8182089 2.85384981 -540.25 -0.25 C-539.58186279 -0.3516748 -538.91372559 -0.45334961 -538.2253418 -0.55810547 C-519.19951428 -3.05804439 -497.96196923 -2.4581919 -479.25 1.75 C-478.38294434 1.94335938 -477.51588867 2.13671875 -476.62255859 2.3359375 C-449.86180983 8.52582335 -416.02641295 20.95643462 -400.60546875 45.3515625 C-394.70849745 55.99767614 -393.3193665 67.77309523 -392.25 79.75 C-391.50878906 79.49605469 -390.76757812 79.24210938 -390.00390625 78.98046875 C-356.163568 67.92126396 -316.30686181 68.69639942 -284.14501953 84.76464844 C-278.73931733 87.57544644 -273.46991426 90.60989533 -268.25 93.75 C-268.25 94.41 -268.25 95.07 -268.25 95.75 C-268.98863281 96.02972656 -269.72726562 96.30945313 -270.48828125 96.59765625 C-277.10383468 99.21193467 -282.96800932 102.23485447 -288.875 106.19921875 C-290.95348957 107.55639039 -293.00655601 108.69578905 -295.25 109.75 C-296.14460938 109.02554688 -297.03921875 108.30109375 -297.9609375 107.5546875 C-321.33333419 88.78599389 -346.80567516 80.27436108 -376.921875 83.09375 C-380.06189684 83.54447084 -383.14626826 84.09614718 -386.25 84.75 C-387.13429688 84.93304687 -388.01859375 85.11609375 -388.9296875 85.3046875 C-408.438322 89.99370647 -424.12743247 100.84082291 -438.25 114.75 C-439.1265625 115.60207031 -440.003125 116.45414063 -440.90625 117.33203125 C-459.00961407 135.96620384 -465.5515387 161.23766185 -465.3515625 186.66796875 C-465.18531005 191.71309112 -464.74863464 196.72803688 -464.25 201.75 C-469.015625 199.890625 -469.015625 199.890625 -471.125 198.625 C-475.93848341 196.64297742 -480.28194461 197.5675684 -485 199.3125 C-489.89459708 201.40274587 -494.21848479 204.16116697 -498.65625 207.078125 C-504.82865287 211.05672203 -511.21633661 213.69344444 -518.25 215.75 C-518.91257812 215.95753906 -519.57515625 216.16507813 -520.2578125 216.37890625 C-538.56986631 221.35727829 -558.94206019 216.51863634 -575.25 207.75 C-578.77417252 205.62071621 -582.0259783 203.30636049 -585.25 200.75 C-585.8584375 200.31558594 -586.466875 199.88117188 -587.09375 199.43359375 C-599.56149787 189.94110389 -606.85104663 172.93179888 -609.01855469 157.85498047 C-611.34088929 136.7334942 -607.50200856 117.02449803 -595 99.6171875 C-583.01795036 85.46733283 -563.57579255 75.34659001 -545.19873047 73.43212891 C-542.12541026 73.27893388 -539.07700951 73.23120395 -536 73.25 C-534.91388428 73.25499512 -533.82776855 73.25999023 -532.70874023 73.26513672 C-519.12226219 73.5574491 -508.57600875 77.25351893 -497.25 84.75 C-495.11194987 86.03388461 -492.96585193 87.30444852 -490.8125 88.5625 C-489.82378906 89.14644531 -488.83507812 89.73039063 -487.81640625 90.33203125 C-482.97716582 93.00576683 -478.67035947 93.48874947 -473.25 92.75 C-463.33015583 89.15804289 -456.94806939 81.18123456 -451.375 72.625 C-450.80265625 71.74630249 -450.80265625 71.74630249 -450.21875 70.84985352 C-445.5318365 63.37165543 -444.14763469 56.47705872 -445.25 47.75 C-448.74513778 38.38802381 -457.97150306 32.97538159 -466.25 28.25 C-467.08740723 27.77151611 -467.92481445 27.29303223 -468.78759766 26.80004883 C-500.47462343 9.04360751 -536.98318625 4.00681019 -572.03344727 13.75097656 C-591.45339577 19.50253579 -610.28447803 28.20224696 -626.25 40.75 C-627.15234375 41.43707031 -628.0546875 42.12414062 -628.984375 42.83203125 C-639.74595533 51.26801583 -648.43931957 60.84850794 -655.25 72.75 C-655.76046875 73.62140625 -656.2709375 74.4928125 -656.796875 75.390625 C-675.26517466 107.94814296 -679.29159752 147.35715425 -669.54882812 183.42700195 C-663.14064351 205.422602 -652.57623033 224.68919279 -636.25 240.75 C-635.36570312 241.63300781 -634.48140625 242.51601563 -633.5703125 243.42578125 C-606.01677523 269.71201933 -567.58427557 283.61027646 -529.83203125 283.015625 C-505.16809729 282.14977703 -479.21773334 273.0290292 -459.25 258.75 C-458.20199219 258.02554687 -457.15398437 257.30109375 -456.07421875 256.5546875 C-450.64606296 252.54837859 -447.72143718 249.04093099 -445.25 242.75 C-442.90887411 245.0179657 -440.65305656 247.26875233 -438.55859375 249.76953125 C-423.90620046 267.23616292 -400.70494104 278.5890668 -378.25 281.75 C-373.82947691 282.0424758 -369.42919412 282.08393309 -365 282.0625 C-363.20429565 282.05512817 -363.20429565 282.05512817 -361.37231445 282.04760742 C-352.92803499 281.9355381 -345.33553254 281.33446419 -337.25 278.75 C-335.54263672 278.22212891 -335.54263672 278.22212891 -333.80078125 277.68359375 C-320.28081485 273.17693828 -309.09557494 267.15139827 -298.2109375 258.10546875 C-297.23382812 257.32816406 -296.25671875 256.55085938 -295.25 255.75 C-294.610625 255.22921875 -293.97125 254.7084375 -293.3125 254.171875 C-289.65877878 253.42452293 -286.86165689 255.9270347 -283.875 257.8125 C-276.54265825 262.18625108 -269.47555728 265.32530215 -261.25 267.75 C-260.46109375 267.98332031 -259.6721875 268.21664063 -258.859375 268.45703125 C-254.79175426 269.44549153 -250.85424414 269.78743366 -246.6796875 269.875 C-236.82253023 270.09524527 -229.51359872 270.78985571 -220.5703125 275.1875 C-201.58437884 284.12205702 -177.22870638 284.39190852 -157.25 278.75 C-155.76113281 278.34974609 -155.76113281 278.34974609 -154.2421875 277.94140625 C-132.45091013 271.40402304 -115.30868226 258.41580685 -102.0703125 240.12890625 C-101.46960938 239.34386719 -100.86890625 238.55882812 -100.25 237.75 C-99.92 237.75 -99.59 237.75 -99.25 237.75 C-99.2406543 238.42466309 -99.23130859 239.09932617 -99.22167969 239.79443359 C-99.16739231 242.9053135 -99.08386285 246.01478229 -99 249.125 C-98.98582031 250.18589844 -98.97164062 251.24679687 -98.95703125 252.33984375 C-98.72949971 259.75737211 -98.02468392 267.86768988 -92.58886719 273.45849609 C-85.39442799 279.30646526 -76.19043601 279.09001385 -67.375 279.0625 C-66.35019531 279.07861328 -65.32539062 279.09472656 -64.26953125 279.11132812 C-56.41275121 279.11631973 -48.90149734 278.36955244 -42.375 273.6875 C-34.84289614 263.27547408 -35.5907136 251.95361103 -35.5 239.625 C-35.47180297 237.69528612 -35.44187041 235.76559678 -35.41015625 233.8359375 C-35.33673396 229.14066933 -35.28688881 224.44569151 -35.25 219.75 C-34.55946533 220.34204224 -34.55946533 220.34204224 -33.85498047 220.94604492 C-32.93289795 221.73652222 -32.93289795 221.73652222 -31.9921875 222.54296875 C-31.03070801 223.36740479 -31.03070801 223.36740479 -30.04980469 224.20849609 C-28.74620619 225.32500734 -27.44023409 226.43874923 -26.1328125 227.55078125 C-20.08956658 232.74797274 -14.54575688 238.39800153 -8.9609375 244.078125 C-4.79175879 248.29028493 -0.56190978 252.33254008 3.96240234 256.1628418 C5.88331252 257.86836448 7.62478173 259.68340521 9.375 261.5625 C17.97133958 270.26037115 30.73820271 280.55505307 43.25 281.5 C51.38276767 281.08646944 57.01195698 275.82778331 62.375 270.125 C69.34040054 261.67055897 76.50499435 251.58180847 76.171875 240.2890625 C74.32860553 229.19531106 58.59005665 219.25738623 50.21875 212.6875 C46.24544245 209.569208 42.35345996 206.35250123 38.45166016 203.14550781 C36.45396727 201.50722768 34.45144353 199.87492551 32.44921875 198.2421875 C30.92438488 196.99490693 29.39964532 195.74751105 27.875 194.5 C27.14917725 193.90944824 26.42335449 193.31889648 25.67553711 192.71044922 C21.82704291 189.5550678 18.19462981 186.34322169 14.75 182.75 C21.25420774 176.67713588 27.82566785 170.79398211 34.75390625 165.203125 C38.38381338 162.2310498 41.94843899 159.1899678 45.5 156.125 C46.11399658 155.5985791 46.72799316 155.0721582 47.3605957 154.52978516 C57.74103346 146.15240202 57.74103346 146.15240202 63.09765625 134.50390625 C63.83696122 122.35276551 55.60212121 112.98679401 48.10595703 104.23828125 C43.28115709 98.94264199 37.81470625 95.33067232 30.6875 94.3125 C9.79066154 96.63437094 -6.89020115 117.19099199 -20.65820312 131.28515625 C-21.97788086 132.62126953 -21.97788086 132.62126953 -23.32421875 133.984375 C-24.49343872 135.17885254 -24.49343872 135.17885254 -25.6862793 136.39746094 C-27.71836886 138.26216097 -29.6681888 139.81744665 -31.91023254 141.39703369 C-32.53678647 141.8398682 -33.1633404 142.28270271 -33.80888081 142.73895645 C-34.28445014 143.07260082 -34.76001947 143.40624519 -35.25 143.75 C-35.25146656 143.08923273 -35.25293312 142.42846546 -35.25444412 141.74767494 C-35.29156524 125.63778549 -35.35064986 109.52814681 -35.43390274 93.41843605 C-35.47363945 85.62774963 -35.50605909 77.83716343 -35.52099609 70.04638672 C-35.53404058 63.25253234 -35.5610761 56.45889899 -35.60461307 49.66516912 C-35.62716548 46.07097128 -35.64291446 42.47704541 -35.64188385 38.88277054 C-35.64099373 34.86115287 -35.67135223 30.84033224 -35.70410156 26.81884766 C-35.69655602 25.04938278 -35.69655602 25.04938278 -35.68885803 23.24417114 C-35.79157978 15.06658304 -36.76868204 7.32058252 -42.6875 1.25 C-50.75602901 -3.47304137 -58.8724532 -3.45514719 -68 -3.5 C-69.03382813 -3.520625 -70.06765625 -3.54125 -71.1328125 -3.5625 C-79.09826661 -3.60262823 -86.69968324 -2.96939156 -93.1875 2 C-99.7748414 10.78312186 -99.39096229 20.8057992 -99.45532227 31.31860352 C-99.47017166 32.84213188 -99.47017166 32.84213188 -99.48532104 34.3964386 C-99.51668406 37.72390483 -99.54159292 41.05138529 -99.56640625 44.37890625 C-99.58699758 46.6977524 -99.6079946 49.01659499 -99.62937927 51.33543396 C-99.68437493 57.41640315 -99.73388281 63.49740495 -99.78222656 69.57843018 C-99.83260665 75.79255041 -99.88820627 82.00662374 -99.94335938 88.22070312 C-100.05066538 100.39709527 -100.15217072 112.57352828 -100.25 124.75 C-105.57027873 119.43850189 -105.57027873 119.43850189 -108.08984375 116.76953125 C-121.93404252 102.33402549 -137.44976073 92.5656078 -156.25 85.75 C-156.25 85.42 -156.25 85.09 -156.25 84.75 C-153.61 84.42 -150.97 84.09 -148.25 83.75 C-148.58 82.1 -148.91 80.45 -149.25 78.75 C-152.85024811 77.85314104 -155.49871584 77.73535222 -159.125 78.5 C-159.92679688 78.65984375 -160.72859375 78.8196875 -161.5546875 78.984375 C-164.39989173 79.70332232 -164.39989173 79.70332232 -167.421875 81.328125 C-172.07967159 83.38566478 -176.62878118 82.94639978 -181.625 82.75 C-196.07694641 82.48680031 -208.42576595 84.91706378 -221.9765625 89.7421875 C-226.00101478 90.98121935 -229.09073591 91.1744147 -233.25 90.75 C-229.48732854 87.47468408 -225.61457899 85.27425342 -221.0625 83.3125 C-220.37269043 83.0131958 -219.68288086 82.7138916 -218.97216797 82.40551758 C-213.70620083 80.19848385 -208.37532977 78.45966551 -202.875 76.9375 C-202.11316406 76.72552979 -201.35132813 76.51355957 -200.56640625 76.29516602 C-196.52959867 75.21847815 -192.73587694 74.58564337 -188.5625 74.25 C-186.23605226 73.96594268 -186.23605226 73.96594268 -184.25 72.75 C-182.15205002 69.67449461 -180.60661485 66.51646949 -179.015625 63.15234375 C-175.04310794 55.49733852 -168.57079724 50.00818757 -160.73828125 46.5 C-156.66024021 45.27082594 -153.26426055 45.32762422 -149.25 46.75 C-145.55274443 49.31544264 -144.46075113 50.71540356 -143.5625 55.125 C-144.49827764 60.0591003 -146.33839183 62.63698102 -150.25 65.75 C-153.81844066 67.69330719 -157.461517 69.28718717 -161.25 70.75 C-161.25 71.08 -161.25 71.41 -161.25 71.75 C-160.69352783 71.78440186 -160.13705566 71.81880371 -159.5637207 71.85424805 C-143.85010845 72.89046928 -127.92165959 74.67387437 -113.25 80.75 C-113.2406543 79.74437012 -113.23130859 78.73874023 -113.22167969 77.70263672 C-112.85509508 43.96798587 -112.85509508 43.96798587 -110.4375 31.0625 C-110.28442383 30.24185059 -110.13134766 29.42120117 -109.97363281 28.57568359 C-107.99045924 19.1762263 -104.53770893 11.0425244 -98.25 3.75 C-97.74855469 3.14285156 -97.24710938 2.53570313 -96.73046875 1.91015625 C-85.18903313 -10.92302156 -66.97680757 -13.06061603 -50.71875 -14.13183594 C-32.96312393 -14.98168988 -13.80293089 -11.75805224 0 0 Z M-547.625 145.3125 C-554.25751105 153.08921618 -555.47751153 163.13647525 -555.13671875 173.04296875 C-553.77247077 183.69512722 -548.71656417 191.27982303 -540.5390625 198.0625 C-531.61949652 204.63801622 -521.20324335 207.02282887 -510.23730469 205.46386719 C-503.70930249 204.14592064 -497.99646189 201.59385049 -492 198.75 C-490.07852399 197.85331119 -488.15666195 196.95744902 -486.234375 196.0625 C-485.39616211 195.66675781 -484.55794922 195.27101563 -483.69433594 194.86328125 C-481.24025041 193.74555952 -478.76124435 192.73163768 -476.25 191.75 C-476.18530518 191.19763672 -476.12061035 190.64527344 -476.05395508 190.07617188 C-474.57188154 177.79213574 -472.36491168 166.41557486 -468.25 154.75 C-467.64317871 152.91754362 -467.03851246 151.08436978 -466.4375 149.25 C-466.045625 148.095 -465.65375 146.94 -465.25 145.75 C-466.17039062 145.60304688 -467.09078125 145.45609375 -468.0390625 145.3046875 C-477.45965406 143.63545844 -485.55434435 140.85114256 -494.25 136.75 C-496.29050106 135.80996573 -498.33207702 134.87225919 -500.375 133.9375 C-501.22320313 133.53917969 -502.07140625 133.14085937 -502.9453125 132.73046875 C-519.22692634 125.80388388 -536.47288317 132.9577039 -547.625 145.3125 Z M-281.375 322.75 C-282.09945313 323.12125 -282.82390625 323.4925 -283.5703125 323.875 C-284.40175781 324.308125 -284.40175781 324.308125 -285.25 324.75 C-284.59 327.06 -283.93 329.37 -283.25 331.75 C-278.15589736 329.35310857 -278.15589736 329.35310857 -274.75 325.125 C-273.99232198 322.74712092 -273.99232198 322.74712092 -275.25 320.75 C-277.77475462 320.75 -279.13902934 321.59595063 -281.375 322.75 Z M-131.4375 332.875 C-132.33919922 333.06320312 -133.24089844 333.25140625 -134.16992188 333.4453125 C-139.55406333 334.69660681 -139.55406333 334.69660681 -143.33203125 338.5625 C-145.0054175 344.37306673 -145.50106028 350.36379684 -143.37109375 356.12890625 C-140.34508035 361.39197246 -136.14904653 365.48946488 -130.3046875 367.37890625 C-125.14272888 368.34044756 -120.71871274 367.50615217 -116.25 364.75 C-111.41520289 360.52311451 -108.15998516 356.23364424 -107.25 349.75 C-107.17105523 342.36866387 -109.39821355 337.76842636 -113.625 331.8125 C-118.44960865 328.65794819 -126.23769795 331.63999995 -131.4375 332.875 Z M-64.25 332.75 C-64.25 343.64 -64.25 354.53 -64.25 365.75 C-50.98209986 366.60172235 -50.98209986 366.60172235 -41.25 360.75 C-40.074375 359.6671875 -40.074375 359.6671875 -38.875 358.5625 C-36.09763221 353.75551729 -34.72490518 348.74856781 -35.6953125 343.20703125 C-36.90283822 339.31117196 -38.00167494 336.34381849 -41.25 333.75 C-43.75873159 333.2459183 -43.75873159 333.2459183 -46.57421875 333.23828125 C-47.50065186 333.20516846 -48.42708496 333.17205566 -49.3815918 333.13793945 C-51.14176636 333.10059692 -51.14176636 333.10059692 -52.9375 333.0625 C-56.670625 332.959375 -60.40375 332.85625 -64.25 332.75 Z M-289.25 358.75 C-290.62771762 359.91475062 -290.62771762 359.91475062 -290.5625 363.125 C-290.59504389 366.69127132 -290.59504389 366.69127132 -288.6875 368.6875 C-285.44917389 370.09907805 -282.74186021 369.95145347 -279.25 369.75 C-282.45760251 365.94364503 -285.65746109 362.20436433 -289.25 358.75 Z " fill="#500C0C" transform="translate(1082.25,582.25)"/>
<path d="M0 0 C0.87914062 0.00491455 1.75828125 0.0098291 2.6640625 0.01489258 C9.22696711 0.13321418 14.97300125 0.92860049 21.125 3.3125 C22.094375 3.6528125 23.06375 3.993125 24.0625 4.34375 C41.34079342 10.86718731 54.35002025 23.73904433 62.125 40.3125 C69.05140336 58.6825263 69.35522806 76.76992104 61.6171875 94.83203125 C54.03562395 111.10594557 42.02308029 123.61385861 25.125 130.3125 C24.465 130.3125 23.805 130.3125 23.125 130.3125 C21.5945508 113.29050388 21.5945508 113.29050388 25.03515625 108.84375 C27.5625 107.25 27.5625 107.25 30.3203125 105.8203125 C39.41729214 100.9297357 44.05543607 91.766241 47.125 82.3125 C47.49238281 81.18908203 47.49238281 81.18908203 47.8671875 80.04296875 C51.50121417 66.62693878 49.07338533 52.98754751 42.375 41 C34.72538642 29.20047105 24.28696976 22.52604488 10.78515625 19 C-3.3821667 16.33890199 -15.67848433 18.8926876 -27.875 26.3125 C-39.17189902 34.58401865 -46.21100693 45.54853582 -48.875 59.3125 C-50.3110245 73.99911425 -46.85980008 86.9699615 -38.0234375 98.7890625 C-34.54549825 102.93210567 -31.71038386 105.45316626 -26.8125 107.75 C-24.53125 109.09765625 -24.53125 109.09765625 -22.875 111.3125 C-22.00630612 117.27608352 -23.02545882 123.39671688 -23.875 129.3125 C-35.41119266 127.73744787 -45.71268573 117.80447948 -52.875 109.3125 C-64.87204154 93.39847567 -68.992405 73.64954221 -66.44921875 54.02734375 C-63.87102848 42.27522489 -57.85882268 31.24883949 -49.875 22.3125 C-49.27042969 21.62671875 -48.66585937 20.9409375 -48.04296875 20.234375 C-35.52679329 6.87699019 -18.13528531 -0.120692 0 0 Z " fill="#FEFCFB" transform="translate(891.875,695.6875)"/>
<path d="M0 0 C9.83672664 7.77535378 16.1808745 17.26616844 17.94140625 29.8984375 C18.87180631 43.99300866 14.55434768 56.08334051 5.359375 66.72265625 C2.23688832 70.01484329 -0.38202703 72.45433124 -4.875 73.6796875 C-7.23389594 71.32079156 -6.66381262 65.90783751 -6.875 62.6796875 C-6.93171875 62.00035156 -6.9884375 61.32101562 -7.046875 60.62109375 C-8.2281993 45.34442273 -8.2281993 45.34442273 -3 38.3671875 C-2.28070312 37.56667969 -1.56140625 36.76617188 -0.8203125 35.94140625 C2.03601393 32.6204966 3.00197539 29.74590074 3.5 25.4296875 C2.92451032 19.67479074 1.20741667 14.64310893 -3.0625 10.6171875 C-7.08138263 9.27755996 -10.68654639 9.00191955 -14.875 9.6796875 C-19.20771449 12.12861308 -21.23369755 15.01493316 -22.875 19.6796875 C-23.82654965 26.59582887 -22.78173663 31.90245273 -18.875 37.6796875 C-18.34648438 38.2675 -17.81796875 38.8553125 -17.2734375 39.4609375 C-12.61512466 44.67118315 -12.23088347 48.68111033 -12.53125 55.58203125 C-13.13339126 63.29986108 -13.95727341 70.99372735 -14.875 78.6796875 C-18.64888278 79.93764843 -22.19392849 79.86382761 -26.125 79.8671875 C-26.86363281 79.87943359 -27.60226562 79.89167969 -28.36328125 79.90429688 C-33.2459987 79.91721412 -37.24241357 79.23001074 -41.875 77.6796875 C-42.71108714 71.07190206 -43.08700543 64.58823599 -43.125 57.9296875 C-43.145625 57.01058594 -43.16625 56.09148437 -43.1875 55.14453125 C-43.2162149 50.18403269 -43.23065478 46.61893441 -39.875 42.6796875 C-39.02301025 42.11958984 -38.17102051 41.55949219 -37.29321289 40.98242188 C-34.57875361 38.85327377 -34.57875361 38.85327377 -34.30737305 35.47167969 C-34.34664917 33.61784668 -34.34664917 33.61784668 -34.38671875 31.7265625 C-34.39733086 30.73623016 -34.39733086 30.73623016 -34.40815735 29.72589111 C-34.43605273 27.62598258 -34.49876713 25.52878371 -34.5625 23.4296875 C-34.58758983 22.0026428 -34.61040183 20.57555612 -34.63085938 19.1484375 C-34.6858588 15.65798002 -34.77209088 12.16909839 -34.875 8.6796875 C-35.865 8.6796875 -36.855 8.6796875 -37.875 8.6796875 C-37.76671875 9.77023437 -37.76671875 9.77023437 -37.65625 10.8828125 C-36.98341208 18.17188998 -36.75822565 25.36182816 -36.875 32.6796875 C-37.865 32.6796875 -38.855 32.6796875 -39.875 32.6796875 C-41.00013633 24.66309116 -40.97079384 16.75830165 -40.875 8.6796875 C-41.865 8.6796875 -42.855 8.6796875 -43.875 8.6796875 C-43.875 16.5996875 -43.875 24.5196875 -43.875 32.6796875 C-44.865 32.6796875 -45.855 32.6796875 -46.875 32.6796875 C-46.875 24.7596875 -46.875 16.8396875 -46.875 8.6796875 C-47.865 8.6796875 -48.855 8.6796875 -49.875 8.6796875 C-49.875 16.5996875 -49.875 24.5196875 -49.875 32.6796875 C-51.195 32.6796875 -52.515 32.6796875 -53.875 32.6796875 C-53.545 24.7596875 -53.215 16.8396875 -52.875 8.6796875 C-53.535 9.0096875 -54.195 9.3396875 -54.875 9.6796875 C-55.631783 13.62781015 -55.68770653 17.66990461 -55.875 21.6796875 C-55.91431641 22.35741211 -55.95363281 23.03513672 -55.99414062 23.73339844 C-56.10947616 25.86124132 -56.18467566 27.98727011 -56.25 30.1171875 C-56.29898438 31.43589844 -56.34796875 32.75460937 -56.3984375 34.11328125 C-55.74089267 38.59341881 -54.21677433 39.74461005 -50.875 42.6796875 C-48.24534413 46.34628624 -47.49786847 48.85679798 -47.51171875 53.34765625 C-47.51236328 54.40533203 -47.51300781 55.46300781 -47.51367188 56.55273438 C-47.52978516 57.64650391 -47.54589844 58.74027344 -47.5625 59.8671875 C-47.55766602 61.52524414 -47.55766602 61.52524414 -47.55273438 63.21679688 C-47.60787408 71.41256158 -47.60787408 71.41256158 -49.875 73.6796875 C-60.08461746 66.60551093 -67.96508996 57.69204819 -70.58984375 45.12890625 C-72.15330228 31.70029669 -70.72177807 20.1054448 -62.69140625 8.875 C-46.7905073 -10.34286066 -20.49519574 -14.71262266 0 0 Z " fill="#FEFCFA" transform="translate(918.875,727.3203125)"/>
<path d="M0 0 C8.11202842 4.33839494 13.76754931 9.84932906 16.875 18.625 C19.58221492 29.09934346 19.08977471 40.58981414 13.81640625 50.14453125 C7.88117071 58.93809552 -1.76114114 64.66674798 -12 67 C-23.11217605 68.454186 -32.19060589 65.48911403 -41.375 59.25 C-47.66482277 54.1526228 -51.18788825 47.82241903 -53 40 C-54.07609086 28.45750963 -53.40965047 18.35862386 -46.30859375 8.69921875 C-34.35188185 -4.55550781 -15.8250688 -7.8636916 0 0 Z " fill="#500C0C" transform="translate(735,733)"/>
<path d="M0 0 C4.84931702 4.22601149 6.6781828 9.10364524 7.375 15.375 C6.4171808 24.63391893 0.52680624 30.20727045 -6.3125 35.9375 C-8 37 -8 37 -10 37 C-7.5479242 41.75991185 -4.09224167 45.57829431 0 49 C0.66 49 1.32 49 2 49 C2.39832031 48.06027344 2.39832031 48.06027344 2.8046875 47.1015625 C3.15789063 46.28429687 3.51109375 45.46703125 3.875 44.625 C4.39707031 43.40683594 4.39707031 43.40683594 4.9296875 42.1640625 C6 40 6 40 8 38 C10.71484375 37.69921875 10.71484375 37.69921875 13.9375 37.6875 C14.99839844 37.67074219 16.05929687 37.65398438 17.15234375 37.63671875 C20 38 20 38 21.8828125 39.2578125 C23.70748529 42.10328125 23.05953926 44.34154604 22.59375 47.5703125 C21.65181982 51.42478993 19.94433063 54.55038113 18 58 C19.11375 58.268125 20.2275 58.53625 21.375 58.8125 C25 60 25 60 27 63 C27.30078125 65.375 27.30078125 65.375 27.3125 68 C27.32925781 68.86625 27.34601563 69.7325 27.36328125 70.625 C27 73 27 73 25.6953125 74.7578125 C22.7226391 76.93594647 19.56422074 77.11332975 16 77 C11.22784015 76.09567265 6.52053524 74.88147263 1.93359375 73.27734375 C-0.75881615 72.8911597 -2.2368001 73.79486598 -4.6875 74.9375 C-13.66517162 78.39137635 -24.5600008 78.62247329 -33.6875 75.4375 C-38.18964518 73.28630435 -41.35121539 70.21264268 -44 66 C-46.15450525 59.53648425 -46.28980291 51.30223155 -43.80078125 44.9296875 C-41.75443893 41.47616268 -39.80883652 38.67726209 -36.71875 36.08984375 C-34.66555415 34.09522192 -34.66555415 34.09522192 -35.265625 31.265625 C-35.59046875 30.27046875 -35.9153125 29.2753125 -36.25 28.25 C-38.62063223 20.0324723 -39.1023796 12.81474424 -35 5 C-26.62698921 -4.91652035 -11.0643544 -6.0351024 0 0 Z M-17.125 14 C-17.84945312 14.37125 -18.57390625 14.7425 -19.3203125 15.125 C-20.15175781 15.558125 -20.15175781 15.558125 -21 16 C-20.34 18.31 -19.68 20.62 -19 23 C-13.90589736 20.60310857 -13.90589736 20.60310857 -10.5 16.375 C-9.74232198 13.99712092 -9.74232198 13.99712092 -11 12 C-13.52475462 12 -14.88902934 12.84595063 -17.125 14 Z M-25 50 C-26.37771762 51.16475062 -26.37771762 51.16475062 -26.3125 54.375 C-26.34504389 57.94127132 -26.34504389 57.94127132 -24.4375 59.9375 C-21.19917389 61.34907805 -18.49186021 61.20145347 -15 61 C-18.20760251 57.19364503 -21.40746109 53.45436433 -25 50 Z " fill="#3497DA" transform="translate(818,891)"/>
<path d="M0 0 C1.51865 -0.01144873 3.03726207 -0.03178629 4.55566406 -0.06152344 C17.66983958 -0.31829848 27.71676975 1.47087402 37.79931641 10.54516602 C38.62431641 11.45266602 39.44931641 12.36016602 40.29931641 13.29516602 C41.06115234 14.12467773 41.06115234 14.12467773 41.83837891 14.97094727 C47.45439928 21.65207495 50.01656102 30.43601357 49.58056641 39.17407227 C47.95284394 51.44981251 43.1687237 61.53097476 33.29931641 69.29516602 C26.04462976 73.62330983 20.21708051 75.44958732 11.79541016 75.46313477 C11.07571548 75.46646317 10.35602081 75.46979156 9.61451721 75.47322083 C8.09742876 75.47827076 6.58032927 75.48062975 5.06323242 75.48046875 C2.74135178 75.48266173 0.4199416 75.50085504 -1.90185547 75.51977539 C-3.37776531 75.52270841 -4.85367739 75.52469382 -6.32958984 75.52563477 C-7.02339249 75.53282028 -7.71719513 75.5400058 -8.43202209 75.54740906 C-12.08843323 75.5300367 -13.56907218 75.38290696 -16.70068359 73.29516602 C-18.00121598 69.97224302 -17.83388674 66.56058367 -17.84594727 63.02954102 C-17.85232712 61.76142578 -17.85870697 60.49331055 -17.86528015 59.18676758 C-17.86680869 57.80623411 -17.86792272 56.42570013 -17.86865234 55.04516602 C-17.87186684 53.62556932 -17.87523106 52.20597296 -17.8787384 50.78637695 C-17.88471958 47.81403841 -17.88657927 44.8417289 -17.88598633 41.86938477 C-17.88588459 38.06289121 -17.89955285 34.2565837 -17.91675854 30.45013428 C-17.92788061 27.51960394 -17.9299055 24.58911862 -17.9293766 21.65856934 C-17.93055579 20.2551611 -17.93497413 18.85175167 -17.94270897 17.44836426 C-17.95251539 15.48586432 -17.94836487 13.52330968 -17.94360352 11.56079102 C-17.94502853 10.44478516 -17.94645355 9.3287793 -17.94792175 8.17895508 C-17.70261741 5.31772204 -17.27893043 3.67131359 -15.70068359 1.29516602 C-11.18476362 -0.96279397 -5.02257018 0.02632149 0 0 Z M1.29931641 23.29516602 C1.29931641 34.18516602 1.29931641 45.07516602 1.29931641 56.29516602 C14.56721655 57.14688836 14.56721655 57.14688836 24.29931641 51.29516602 C25.47494141 50.21235352 25.47494141 50.21235352 26.67431641 49.10766602 C29.45168419 44.30068331 30.82441123 39.29373383 29.85400391 33.75219727 C28.64647819 29.85633798 27.54764147 26.88898451 24.29931641 24.29516602 C21.79058482 23.79108431 21.79058482 23.79108431 18.97509766 23.78344727 C18.04866455 23.75033447 17.12223145 23.71722168 16.16772461 23.68310547 C14.40755005 23.64576294 14.40755005 23.64576294 12.61181641 23.60766602 C8.87869141 23.50454102 5.14556641 23.40141602 1.29931641 23.29516602 Z " fill="#3497DA" transform="translate(1016.70068359375,891.704833984375)"/>
<path d="M0 0 C9.48694715 7.37873667 15.26658994 16.07787119 16.8125 28.1875 C17.95471527 39.36489227 14.64601284 50.32482178 7.8125 59.1875 C0.77508757 66.97988388 -7.78775938 71.52839626 -18.328125 72.35546875 C-30.16457501 72.46506551 -39.23833233 69.15186904 -47.9375 61 C-57.09875028 51.42232925 -58.67224221 41.50763148 -58.46484375 28.75390625 C-58.01406915 17.82991076 -52.80222543 9.4195908 -45.0625 2 C-31.26732035 -8.97002303 -14.74824514 -8.38625704 0 0 Z M-26.375 18.3125 C-27.27669922 18.50070312 -28.17839844 18.68890625 -29.10742188 18.8828125 C-34.49156333 20.13410681 -34.49156333 20.13410681 -38.26953125 24 C-39.9429175 29.81056673 -40.43856028 35.80129684 -38.30859375 41.56640625 C-35.28258035 46.82947246 -31.08654653 50.92696488 -25.2421875 52.81640625 C-20.08022888 53.77794756 -15.65621274 52.94365217 -11.1875 50.1875 C-6.35270289 45.96061451 -3.09748516 41.67114424 -2.1875 35.1875 C-2.10855523 27.80616387 -4.33571355 23.20592636 -8.5625 17.25 C-13.38710865 14.09544819 -21.17519795 17.07749995 -26.375 18.3125 Z " fill="#3497DA" transform="translate(977.1875,896.8125)"/>
<path d="M0 0 C1.03124496 -0.00637985 2.06248993 -0.0127597 3.12498474 -0.01933289 C4.24268753 -0.02044571 5.36039032 -0.02155853 6.51196289 -0.02270508 C7.65621231 -0.02603348 8.80046173 -0.02936188 9.97938538 -0.03279114 C12.40291949 -0.03786101 14.82646059 -0.04019944 17.25 -0.04003906 C20.96569268 -0.04222519 24.68108843 -0.06037956 28.39672852 -0.0793457 C30.74763895 -0.08227962 33.09855081 -0.08426443 35.44946289 -0.08520508 C36.56514145 -0.09239059 37.68082001 -0.09957611 38.83030701 -0.10697937 C39.86470413 -0.10390274 40.89910126 -0.10082611 41.96484375 -0.09765625 C42.87592392 -0.09908127 43.78700409 -0.10050629 44.72569275 -0.10197449 C47.04711914 0.14526367 47.04711914 0.14526367 50.04711914 2.14526367 C51.67818213 7.03845264 51.79994091 11.37613252 49.79711914 16.08276367 C47.71820642 18.53291081 47.15847716 18.65213194 44.04711914 19.14526367 C41.42814895 19.22842545 38.83710161 19.26160819 36.21899414 19.24291992 C35.4699884 19.24150497 34.72098267 19.24009003 33.94927979 19.2386322 C31.56518502 19.23305026 29.18118536 19.22050112 26.79711914 19.20776367 C25.17732883 19.20274634 23.55753705 19.19818384 21.93774414 19.1940918 C17.97416602 19.18308675 14.01065869 19.16583458 10.04711914 19.14526367 C10.04711914 22.11526367 10.04711914 25.08526367 10.04711914 28.14526367 C10.81902588 28.12955322 11.59093262 28.11384277 12.38623047 28.09765625 C15.87728576 28.0353676 19.36822423 27.99629194 22.85961914 27.95776367 C24.07456055 27.93262695 25.28950195 27.90749023 26.54125977 27.8815918 C28.28632812 27.86708984 28.28632812 27.86708984 30.06665039 27.85229492 C31.14019775 27.83658447 32.21374512 27.82087402 33.31982422 27.8046875 C36.04711914 28.14526367 36.04711914 28.14526367 37.85839844 29.47607422 C40.48427555 33.16330401 40.34850364 36.77518836 40.04711914 41.14526367 C37.84711914 45.74526367 37.84711914 45.74526367 35.04711914 47.14526367 C33.16072794 47.23017867 31.27133399 47.25245668 29.38305664 47.24291992 C28.26157227 47.23969727 27.14008789 47.23647461 25.98461914 47.2331543 C24.80899414 47.22477539 23.63336914 47.21639648 22.42211914 47.20776367 C21.23875977 47.20325195 20.05540039 47.19874023 18.83618164 47.1940918 C15.90644408 47.18227834 12.97680642 47.16580625 10.04711914 47.14526367 C10.04711914 50.11526367 10.04711914 53.08526367 10.04711914 56.14526367 C11.59822388 56.121698 11.59822388 56.121698 13.18066406 56.09765625 C17.02905441 56.04322313 20.87741093 56.00886518 24.72607422 55.98046875 C26.38954395 55.96541253 28.05297419 55.94496304 29.71630859 55.91894531 C32.11183436 55.8824216 34.50683381 55.86550585 36.90258789 55.85229492 C37.64236374 55.83681107 38.38213959 55.82132721 39.14433289 55.80537415 C43.63031037 55.80392274 46.48796452 56.36048225 50.04711914 59.14526367 C51.26689243 61.58481025 51.24865727 63.29832216 51.29711914 66.02026367 C51.32290039 66.88393555 51.34868164 67.74760742 51.37524414 68.63745117 C50.97165297 71.72204081 50.19522681 72.91162316 48.04711914 75.14526367 C45.69445801 75.63973999 45.69445801 75.63973999 42.88891602 75.63110352 C41.31213074 75.6403334 41.31213074 75.6403334 39.70349121 75.64974976 C38.00186829 75.62819321 38.00186829 75.62819321 36.26586914 75.60620117 C35.10083862 75.60528473 33.93580811 75.60436829 32.73547363 75.60342407 C30.27079193 75.59737853 27.80611789 75.58160425 25.34155273 75.55688477 C21.5621442 75.52040868 17.78371642 75.5158651 14.00415039 75.51635742 C11.61221481 75.50652552 9.22028589 75.4948682 6.82836914 75.48120117 C5.69395386 75.47897552 4.55953857 75.47674988 3.39074707 75.47445679 C2.33955688 75.46169708 1.2883667 75.44893738 0.20532227 75.43579102 C-1.18342102 75.42435562 -1.18342102 75.42435562 -2.60021973 75.41268921 C-4.95288086 75.14526367 -4.95288086 75.14526367 -7.95288086 73.14526367 C-9.23722742 69.85095706 -9.08596294 66.48738113 -9.09814453 62.98730469 C-9.10452438 61.7424379 -9.11090424 60.49757111 -9.11747742 59.21498108 C-9.11900613 57.85971109 -9.12012007 56.50444058 -9.12084961 55.14916992 C-9.12406453 53.7543891 -9.12742878 52.35960861 -9.13093567 50.96482849 C-9.13691715 48.04376443 -9.13877655 45.12272991 -9.13818359 42.20166016 C-9.13808195 38.46476576 -9.15174034 34.72806128 -9.1689558 30.99121189 C-9.18009116 28.1112532 -9.18210234 25.23134024 -9.18157387 22.35136223 C-9.18275143 20.97390017 -9.18716063 19.59643683 -9.19490623 18.21899605 C-9.20473785 16.29022813 -9.20055565 14.3614043 -9.19580078 12.43261719 C-9.1972258 11.33659683 -9.19865082 10.24057648 -9.20011902 9.11134338 C-8.9446776 6.04685035 -8.34993742 3.87631688 -6.95288086 1.14526367 C-4.46514531 -0.0986041 -2.78308921 0.01165413 0 0 Z " fill="#3497DA" transform="translate(1079.952880859375,891.854736328125)"/>
<path d="M0 0 C0.33 0.66 0.66 1.32 1 2 C0.25623368 3.65657044 -0.4882366 5.31282917 -1.23664188 6.967309 C-3.73936582 13.63163118 -3.16236588 21.55194352 -3.20532227 28.56860352 C-3.21522186 29.58428909 -3.22512146 30.59997467 -3.23532104 31.6464386 C-3.26668406 34.97390483 -3.29159292 38.30138529 -3.31640625 41.62890625 C-3.33699758 43.9477524 -3.3579946 46.26659499 -3.37937927 48.58543396 C-3.43437493 54.66640315 -3.48388281 60.74740495 -3.53222656 66.82843018 C-3.58260665 73.04255041 -3.63820627 79.25662374 -3.69335938 85.47070312 C-3.80066538 97.64709527 -3.90217072 109.82352828 -4 122 C-9.32027873 116.68850189 -9.32027873 116.68850189 -11.83984375 114.01953125 C-25.68404252 99.58402549 -41.19976073 89.8156078 -60 83 C-60 82.67 -60 82.34 -60 82 C-57.36 81.67 -54.72 81.34 -52 81 C-52.33 79.35 -52.66 77.7 -53 76 C-56.60024811 75.10314104 -59.24871584 74.98535222 -62.875 75.75 C-63.67679688 75.90984375 -64.47859375 76.0696875 -65.3046875 76.234375 C-68.14989173 76.95332232 -68.14989173 76.95332232 -71.171875 78.578125 C-75.82967159 80.63566478 -80.37878118 80.19639978 -85.375 80 C-99.82694641 79.73680031 -112.17576595 82.16706378 -125.7265625 86.9921875 C-129.75101478 88.23121935 -132.84073591 88.4244147 -137 88 C-133.23732854 84.72468408 -129.36457899 82.52425342 -124.8125 80.5625 C-124.12269043 80.2631958 -123.43288086 79.9638916 -122.72216797 79.65551758 C-117.45620083 77.44848385 -112.12532977 75.70966551 -106.625 74.1875 C-105.86316406 73.97552979 -105.10132813 73.76355957 -104.31640625 73.54516602 C-100.27959867 72.46847815 -96.48587694 71.83564337 -92.3125 71.5 C-89.98605226 71.21594268 -89.98605226 71.21594268 -88 70 C-85.90205002 66.92449461 -84.35661485 63.76646949 -82.765625 60.40234375 C-78.79310794 52.74733852 -72.32079724 47.25818757 -64.48828125 43.75 C-60.41024021 42.52082594 -57.01426055 42.57762422 -53 44 C-49.30274443 46.56544264 -48.21075113 47.96540356 -47.3125 52.375 C-48.24827764 57.3091003 -50.08839183 59.88698102 -54 63 C-57.56844066 64.94330719 -61.211517 66.53718717 -65 68 C-65 68.33 -65 68.66 -65 69 C-64.44352783 69.03440186 -63.88705566 69.06880371 -63.3137207 69.10424805 C-47.60010845 70.14046928 -31.67165959 71.92387437 -17 78 C-16.9906543 76.99437012 -16.98130859 75.98874023 -16.97167969 74.95263672 C-16.60509508 41.21798587 -16.60509508 41.21798587 -14.1875 28.3125 C-14.03442383 27.49185059 -13.88134766 26.67120117 -13.72363281 25.82568359 C-12.02412699 17.77069906 -9.57161212 9.89066586 -3.75 3.875 C-3.04359375 3.12992188 -2.3371875 2.38484375 -1.609375 1.6171875 C-1.07828125 1.08351563 -0.5471875 0.54984375 0 0 Z " fill="#500C0C" transform="translate(986,585)"/>
<path d="M0 0 C4.35516724 3.35012864 4.35516724 3.35012864 4.9375 7.0625 C4.29320844 11.97522311 2.26419759 14.76800241 -1.5625 17.875 C-3.4453125 18.72265625 -3.4453125 18.72265625 -5.5625 18.875 C-8.0078125 17.87890625 -8.0078125 17.87890625 -10.6875 16.4375 C-16.9260896 13.46357846 -22.09120029 12.54145447 -28.7890625 14.5390625 C-33.85440524 16.72076443 -37.05812395 19.97373186 -39.5625 24.875 C-41.36805218 30.80917148 -40.94786101 36.3238383 -38.609375 42.015625 C-35.95331508 46.73310456 -31.59149088 49.17883148 -26.5625 50.875 C-21.32403753 51.53946574 -16.37551914 51.78624751 -11.8125 48.875 C-7.9454256 46.49526191 -6.0204677 46.04945043 -1.5625 46.875 C2.06723086 49.94343227 4.19456138 53.47135466 5 58.125 C4.38159448 62.24770346 4.09036666 62.67232805 1 65.125 C-8.61523055 71.47308355 -19.25824858 72.87381142 -30.44140625 70.72265625 C-41.7272975 67.65752684 -50.41472033 61.45800878 -56.4375 51.4375 C-61.25091522 41.94032383 -62.15433071 30.90536531 -59.375 20.625 C-55.96876528 10.7987192 -49.84035502 3.06124803 -40.453125 -1.703125 C-26.62547167 -7.57144617 -13.11715549 -8.42793082 0 0 Z " fill="#3497DA" transform="translate(909.5625,897.125)"/>
<path d="M0 0 C3.07165505 1.98377722 4.48038963 3.46576582 5.66015625 6.94921875 C7.70888623 18.02827309 0.79285717 27.18546911 -4.84399414 36.0637207 C-9.22212509 43.07094326 -12.2758774 50.20694041 -15 58 C-16.32 58 -17.64 58 -19 58 C-23.54266155 44.37201536 -23.07320086 21.55367526 -17.25 8.5 C-13.27076993 1.620159 -8.08298676 -1.80118121 0 0 Z " fill="#E67E22" transform="translate(906,596)"/>
<path d="M0 0 C3.69725557 2.56544264 4.78924887 3.96540356 5.6875 8.375 C4.77386817 13.19233149 2.61816324 15.85874466 -1 19 C-4.73084159 21.27620039 -8.58404598 23.19219162 -12.54882812 25.02734375 C-14.37421081 25.87463368 -16.18311526 26.75131876 -17.9921875 27.6328125 C-24.05842348 30.50487998 -29.25728715 32.74903054 -36 33 C-34.91570784 22.23840032 -29.27883098 13.14516365 -21.38671875 5.8828125 C-14.87985223 0.74973613 -8.3007055 -2.94119486 0 0 Z " fill="#E57D21" transform="translate(933,629)"/>
<path d="M0 0 C2.31 0.33 4.62 0.66 7 1 C8.53905311 1.07140175 10.08042629 1.108902 11.62109375 1.09765625 C12.41064453 1.09443359 13.20019531 1.09121094 14.01367188 1.08789062 C14.81353516 1.07951172 15.61339844 1.07113281 16.4375 1.0625 C17.67790039 1.05573242 17.67790039 1.05573242 18.94335938 1.04882812 C20.96227146 1.03715811 22.98114574 1.01922718 25 1 C24.85980308 3.81288705 24.71312045 6.62516885 24.5625 9.4375 C24.52318359 10.23994141 24.48386719 11.04238281 24.44335938 11.86914062 C24.11328125 17.88671875 24.11328125 17.88671875 23 19 C20.03212407 19.10030595 17.09262828 19.13871785 14.125 19.125 C13.29613281 19.12886719 12.46726562 19.13273438 11.61328125 19.13671875 C10.81535156 19.13542969 10.01742187 19.13414062 9.1953125 19.1328125 C8.46328613 19.13168457 7.73125977 19.13055664 6.97705078 19.12939453 C5 19 5 19 2 18 C1.34 12.06 0.68 6.12 0 0 Z " fill="#FEFBF9" transform="translate(878,811)"/>
<path d="M0 0 C2.37570543 -0.0816082 4.74855841 -0.14077222 7.125 -0.1875 C7.79015625 -0.21263672 8.4553125 -0.23777344 9.140625 -0.26367188 C13.86179402 -0.33310083 17.00510618 0.49256664 21 3 C21.33 3.66 21.66 4.32 22 5 C18.70835171 5.02895225 15.41673601 5.0467823 12.125 5.0625 C11.18785156 5.07087891 10.25070312 5.07925781 9.28515625 5.08789062 C7.94130859 5.09272461 7.94130859 5.09272461 6.5703125 5.09765625 C5.32918701 5.10551147 5.32918701 5.10551147 4.06298828 5.11352539 C2 5 2 5 0 4 C0 2.68 0 1.36 0 0 Z " fill="#500C0C" transform="translate(1018,911)"/>
<path d="M0 0 C1.35789069 0.96639052 2.69495556 1.96335311 4 3 C0.73061914 3.83910389 -2.54072534 4.67028333 -5.8125 5.5 C-7.2056543 5.85771484 -7.2056543 5.85771484 -8.62695312 6.22265625 C-9.9659668 6.56103516 -9.9659668 6.56103516 -11.33203125 6.90625 C-12.15421143 7.11572266 -12.9763916 7.32519531 -13.82348633 7.54101562 C-16 8 -16 8 -19 8 C-17.8056459 4.28423169 -15.53384999 2.56355146 -12.13671875 0.76171875 C-8.19789855 -0.64243105 -4.09542058 -0.76146011 0 0 Z " fill="#500C0C" transform="translate(961,910)"/>
<path d="M0 0 C-2.39509338 2.89932357 -4.31245243 3.50168276 -8 4 C-7.1875 2.0625 -7.1875 2.0625 -6 0 C-3 -1 -3 -1 0 0 Z " fill="#500C0C" transform="translate(805,903)"/>
</svg>
